<?xml version="1.0" standalone="no"?>
<!DOCTYPE svg PUBLIC "-//W3C//DTD SVG 20010904//EN"
 "http://www.w3.org/TR/2001/REC-SVG-20010904/DTD/svg10.dtd">
<svg version="1.0" xmlns="http://www.w3.org/2000/svg"
 width="1492.000000pt" height="1457.000000pt" viewBox="0 0 1492.000000 1457.000000"
 preserveAspectRatio="xMidYMid meet">

<g transform="translate(0.000000,1457.000000) scale(0.100000,-0.100000)"
fill="#000000" stroke="none">
<path d="M14315 11319 c-565 -271 -707 -339 -1004 -481 -79 -38 -272 -116
-430 -174 -157 -58 -329 -121 -381 -141 -52 -20 -129 -47 -170 -59 -41 -12
-106 -34 -145 -48 -67 -26 -151 -57 -332 -124 -46 -17 -83 -28 -83 -24 0 4 -4
3 -8 -3 -8 -11 -54 -30 -117 -49 -22 -7 -53 -18 -70 -25 -27 -11 -92 -35 -212
-78 -24 -8 -43 -18 -43 -23 0 -9 22 -62 55 -136 13 -29 54 -125 90 -215 37
-90 84 -204 105 -254 20 -49 88 -214 150 -365 62 -151 145 -354 185 -450 86
-209 265 -643 310 -755 18 -44 54 -132 80 -195 26 -63 74 -178 105 -255 32
-77 72 -174 89 -215 17 -41 31 -80 31 -86 0 -6 -80 -38 -177 -72 -98 -33 -239
-82 -313 -107 -74 -26 -272 -94 -440 -152 -168 -58 -324 -112 -348 -120 -24
-8 -45 -14 -46 -12 -5 5 -63 171 -82 232 -8 26 -19 45 -23 42 -5 -2 -11 14
-15 37 -4 22 -15 62 -25 87 -27 68 -41 110 -56 165 -8 27 -19 54 -24 59 -6 6
-11 22 -11 35 0 15 -4 21 -12 16 -8 -5 -9 -2 -5 9 9 24 -5 22 -118 -19 -55
-20 -115 -41 -133 -47 -30 -10 -33 -14 -29 -41 7 -39 54 -204 66 -231 9 -20
42 -131 45 -150 1 -5 5 -16 9 -23 5 -7 6 -21 2 -31 -8 -28 -206 -216 -316
-301 -98 -76 -325 -230 -339 -230 -4 0 -37 35 -72 78 -36 42 -89 96 -119 118
-30 23 -540 333 -1134 689 -594 355 -1114 667 -1155 692 -399 243 -443 267
-501 271 -42 3 -75 -2 -130 -21 -41 -14 -147 -50 -236 -81 -90 -30 -175 -62
-190 -70 -39 -20 -80 -66 -155 -176 -81 -117 -120 -164 -217 -259 -135 -131
-255 -212 -391 -262 -157 -57 -273 -71 -410 -48 -103 16 -162 76 -164 164 -1
40 29 116 135 342 27 57 49 105 49 108 0 2 18 41 39 87 21 46 74 160 116 253
136 297 143 312 194 367 32 35 82 72 145 108 53 30 92 56 87 58 -9 3 -182 -34
-291 -63 -100 -27 -627 -145 -645 -145 -16 0 -334 136 -554 237 -133 61 -171
76 -178 70 -3 -4 -25 -48 -48 -99 -23 -51 -78 -172 -123 -268 -93 -204 -319
-697 -467 -1020 -57 -124 -149 -324 -205 -445 -56 -121 -131 -285 -167 -365
-138 -309 -177 -395 -183 -403 -4 -4 -92 31 -196 78 -240 109 -235 107 -324
148 -41 19 -127 58 -190 87 -63 28 -140 63 -170 77 -30 15 -125 58 -210 97
-85 39 -164 76 -174 82 -18 11 -12 25 89 215 59 112 130 247 158 299 27 52 64
122 82 155 18 33 53 98 78 145 168 317 226 426 312 590 54 102 113 214 132
250 20 36 58 108 86 160 27 52 66 127 87 165 21 39 58 108 82 155 196 372 264
500 283 530 13 20 35 60 50 90 26 52 27 54 9 68 -11 8 -37 22 -59 32 -22 10
-125 59 -230 110 -104 51 -253 123 -330 160 -333 160 -397 192 -525 254 -74
36 -140 66 -147 66 -6 0 -123 55 -260 123 -191 94 -359 189 -733 416 -267 162
-613 372 -770 467 l-285 172 -3 -2321 c-1 -1277 0 -2327 2 -2333 2 -6 69 -48
148 -94 78 -46 182 -106 229 -134 48 -28 151 -89 230 -134 515 -300 755 -443
761 -454 4 -7 21 -74 39 -148 47 -200 53 -220 61 -220 3 0 28 42 53 93 26 50
51 97 55 102 4 6 36 64 70 130 35 66 75 143 90 170 15 28 49 92 76 144 27 51
54 95 60 98 9 3 250 -102 524 -229 119 -56 614 -279 665 -300 27 -12 54 -25
59 -30 22 -19 35 -2 91 117 32 69 61 125 65 125 8 0 192 -87 475 -225 159 -77
232 -119 299 -171 192 -149 385 -304 391 -314 3 -5 10 -10 15 -10 5 0 -5 30
-23 68 -28 59 -32 77 -32 153 0 78 2 89 27 121 68 89 198 71 389 -54 152 -100
248 -210 273 -311 4 -15 11 -25 15 -22 5 3 27 38 49 78 45 82 96 133 174 174
49 26 62 28 163 28 138 -1 180 -18 275 -113 81 -81 109 -146 117 -269 6 -81
15 -103 28 -64 10 31 143 151 194 174 35 16 67 21 131 21 75 0 93 -4 152 -31
89 -42 151 -100 191 -182 31 -63 32 -70 32 -191 0 -115 -2 -130 -27 -183 -15
-32 -24 -57 -20 -55 127 66 199 80 280 59 67 -18 160 -96 199 -166 18 -34 33
-75 33 -93 0 -30 -30 -164 -46 -205 -4 -11 28 -33 117 -81 67 -36 126 -66 131
-66 25 0 -8 -24 -141 -103 -218 -128 -227 -131 -346 -132 -234 0 -400 107
-458 296 -5 15 -11 15 -58 3 -71 -18 -201 -18 -274 1 -171 45 -326 201 -338
340 -1 22 -7 41 -12 42 -6 2 -39 -7 -75 -20 -55 -19 -86 -22 -200 -22 -122 0
-140 2 -182 23 -64 32 -135 96 -159 145 -53 103 -60 184 -29 315 11 46 20 85
20 87 0 3 -15 -4 -33 -15 -48 -29 -127 -41 -186 -30 -79 15 -140 49 -218 123
-60 57 -76 67 -95 62 -56 -17 -98 -83 -98 -155 0 -56 43 -181 88 -255 51 -84
154 -184 227 -220 53 -26 71 -29 150 -30 76 0 96 4 129 23 21 13 40 21 41 20
2 -2 -8 -41 -22 -88 -19 -67 -24 -99 -20 -150 16 -203 169 -340 379 -340 77 0
208 24 250 46 37 19 44 14 46 -38 8 -127 133 -266 294 -326 93 -35 247 -38
343 -7 17 5 24 -4 49 -60 67 -154 232 -247 441 -248 120 -1 139 7 354 137
l143 86 96 -36 c53 -20 127 -42 163 -50 79 -16 259 -19 307 -5 104 31 195 137
233 271 7 25 15 49 19 53 4 4 29 -6 56 -22 77 -48 157 -71 243 -71 142 1 240
40 330 132 114 115 162 267 125 398 -3 13 13 15 99 16 285 3 483 140 541 375
26 108 21 199 -21 331 -11 35 -12 52 -3 67 l10 21 53 -22 c108 -44 187 -59
287 -56 121 5 187 33 269 115 94 95 134 211 135 389 1 76 -3 99 -23 142 -24
51 -24 53 -8 105 9 28 19 70 22 92 11 67 14 71 73 110 151 100 252 184 400
331 l112 113 136 50 c75 28 142 51 149 51 11 0 40 -71 88 -217 6 -18 14 -33
18 -33 4 0 166 54 361 121 194 66 373 127 398 134 25 8 151 51 280 96 129 45
249 84 265 86 28 4 32 1 44 -34 7 -21 27 -69 43 -108 16 -38 33 -79 37 -90 5
-11 20 -47 34 -80 14 -33 39 -94 55 -135 48 -120 172 -422 180 -436 6 -10 32
-2 107 32 163 72 148 59 167 154 20 99 45 242 63 352 6 43 13 80 16 82 2 2
123 59 269 126 146 67 332 153 413 191 81 38 150 69 151 69 2 0 61 27 130 60
70 33 128 60 130 60 3 0 61 27 131 60 70 33 128 60 131 60 2 0 56 25 121 56
65 31 135 63 156 71 l37 15 0 2214 c0 1765 -3 2214 -12 2213 -7 0 -274 -126
-593 -280z m-3295 -4179 c0 -5 -5 -10 -11 -10 -5 0 -7 5 -4 10 3 6 8 10 11 10
2 0 4 -4 4 -10z m-5 -190 c-3 -5 -12 -10 -18 -10 -7 0 -6 4 3 10 19 12 23 12
15 0z m-88 -36 c-3 -3 -12 -4 -19 -1 -8 3 -5 6 6 6 11 1 17 -2 13 -5z"/>
</g>
</svg>
